<?xml version="1.0" encoding="utf-8"?>
<!-- Generator: Adobe Illustrator 27.5.0, SVG Export Plug-In . SVG Version: 6.00 Build 0)  -->
<svg version="1.1" id="Layer_1" xmlns="http://www.w3.org/2000/svg" xmlns:xlink="http://www.w3.org/1999/xlink" x="0px" y="0px"
	 viewBox="0 0 512 512" style="enable-background:new 0 0 512 512;" xml:space="preserve" >
<g>
	<path fill="white" d="M48.11,221.87c-17.17,0-31.04-13.87-31.04-31.04c0-2.03,0.21-3.95,0.64-5.97C23.36,162.45,66.99,17.07,256,17.07
		s232.64,145.39,238.29,167.79c0.53,2.03,0.64,3.95,0.64,5.97c0,17.17-13.87,31.04-31.04,31.04H48.11z M136.53,119.47
		c0-9.43-7.64-17.07-17.07-17.07s-17.07,7.64-17.07,17.07s7.64,17.07,17.07,17.07S136.53,128.89,136.53,119.47z M392.53,136.53
		c9.43,0,17.07-7.64,17.07-17.07s-7.64-17.07-17.07-17.07c-9.43,0-17.07,7.64-17.07,17.07S383.11,136.53,392.53,136.53z
		 M273.07,85.33c0-9.43-7.64-17.07-17.07-17.07c-9.43,0-17.07,7.64-17.07,17.07s7.64,17.07,17.07,17.07
		C265.43,102.4,273.07,94.76,273.07,85.33z M0,307.2C0,278.93,22.93,256,51.2,256h409.6c28.27,0,51.2,22.93,51.2,51.2
		c0,28.27-22.93,51.2-51.2,51.2H51.2C22.93,358.4,0,335.47,0,307.2z M17.07,409.6c0-9.39,7.68-17.07,17.07-17.07h443.73
		c9.39,0,17.07,7.68,17.07,17.07v17.07c0,37.65-30.61,68.27-68.27,68.27H85.33c-37.65,0-68.27-30.61-68.27-68.27V409.6z"/>
</g>
</svg>
